<?xml version="1.0" encoding="iso-8859-1"?>
<!-- Uploaded to: SVG Repo, www.svgrepo.com, Generator: SVG Repo Mixer Tools -->
<!DOCTYPE svg PUBLIC "-//W3C//DTD SVG 1.1//EN" "http://www.w3.org/Graphics/SVG/1.1/DTD/svg11.dtd">
<svg fill="#000000" version="1.1" id="Capa_1" xmlns="http://www.w3.org/2000/svg" xmlns:xlink="http://www.w3.org/1999/xlink" 
	 width="800px" height="800px" viewBox="0 0 185.12 185.119"
	 xml:space="preserve">
<g>
	<path d="M184.525,136.607c0.299-17.866,0.516-35.959-0.243-53.808c-0.029-0.689-0.305-1.2-0.667-1.614
		c-0.232-1.714-2.28-3.012-4.036-2.024c-8.854,4.982-18.125,8.427-28.064,5.403c16.977-15.765-19.248-26.426-31.966-31.922
		c-6.934-2.996-17.395-8.203-26.522-8.298c1.26-5.601,1.646-11.607,1.487-17.561c4.455,0.985,9.644,0.6,13.725-0.07
		c2.207-0.362,3-3.689,1.346-5.097c-2.952-2.515-6.383-4.205-9.932-5.709c-1.675-0.709-4.208-2.28-6.348-2.48
		c-0.003-0.016-0.004-0.033-0.007-0.049c-0.353-2.296-3.718-1.558-3.847,0.521c-0.144,2.326-0.171,4.67-0.157,7.02
		c-0.575,1.099-0.658,2.503,0.078,3.525c0.19,6.693,0.691,13.431,0.725,20.081c-2.023,0.256-3.954,0.802-5.72,1.776
		c-18.595,10.26-38.75,17.171-57.262,27.445c-1.155,0.641-1.756,2.432-0.936,3.568c2.818,3.904,5.777,6.441,9.335,9.457
		c-5.026,1.223-9.462,2.524-14.946,1.493c-6.229-1.171-10.692-7.186-15.687-10.702c-0.008-0.006-0.015,0-0.023-0.005
		c-0.223-1.25-1.955-1.873-2.73-0.555c-4.491,7.639-0.573,22.507,0.046,30.74c1.561,20.771-2.465,41.656-0.731,62.393
		c0.117,1.397,1.163,2.081,2.496,1.901c8.118-1.091,14.187-5.458,21.914-8.087c0.869-0.296,1.388-0.886,1.648-1.563
		c22.811,5.756,49.025,5.284,72.238,4.349c12.888-0.521,25.713-2.549,38.559-3.646c15.642-1.336,25.766,6.455,39.593,9.986
		c1.028,0.263,1.88-0.153,2.404-0.825c0.758,0.08,1.552-0.188,1.891-0.907C187.071,160.947,184.336,147.813,184.525,136.607z
		 M95.832,19.064c0.916,0.605,1.859,1.2,2.804,1.802c-1.532-0.163-3.046-0.484-4.543-0.978c-0.066-0.693-0.135-1.385-0.213-2.071
		C94.578,18.291,95.289,18.707,95.832,19.064z M52.165,67.662c9.468-3.905,18.688-8.69,27.869-13.216
		c16.468-8.119,34.846,1.912,49.449,8.902c7.121,3.408,18.848,7.366,18.224,14.95c-19.038-2.322-39.462,0.111-58.746-0.825
		c-16.364-0.794-35.625-3.95-52.276-1.269C38.147,72.243,44.151,70.967,52.165,67.662z M179.249,168.486
		c-21.881-12.794-38.831-11.319-64.143-8.588c-30.034,3.24-59.376-0.962-89.358-1.209c-0.398-0.081-0.831-0.089-1.323,0.074
		c-2.395,0.795-19.036,9.275-19.035,5.444c0.003-10.441,0.51-20.934,0.736-31.378c0.36-16.674-4.295-36.958-1.45-53.391
		c4.973,5.333,9.203,10.757,16.712,12.377c5.355,1.155,13.294,0.714,17.45-3.217c0.548-0.518,0.492-1.189,0.145-1.681
		c0.038-0.274,0.038-0.565-0.125-0.876c-1.081-2.074-1.76-3.795-2.149-5.291c14.906-0.608,30.34,0.845,45.142,1.517
		c20.642,0.936,43.017-1.248,63.515,1.504c-0.073,0.1-0.114,0.191-0.189,0.292c-1.221,1.61,0.756,3.818,2.482,3.395
		c8.598,4.715,23.039,6.022,31.485-0.223c0.696,12.487,0.676,24.967,0.31,37.478c-0.309,10.583-5.057,34.966,1.917,44.216
		C180.784,168.151,179.902,168.044,179.249,168.486z"/>
	<path d="M54.447,121.331c0.233-9.472,2.28-18.2,0.88-27.631c-0.693-4.673-8.868-3.597-11.755-3.467
		c-0.666,0.03-1.164,0.293-1.571,0.637c-0.07-0.664-1.076-0.827-1.243-0.124c-4.681,19.75-0.029,42.258-0.721,62.489
		c-0.018,0.526,0.426,0.857,0.902,0.902c2.57,0.246,11.859,2.912,13.319-1.156c1.282-3.572,0.734-7.001,0.262-10.727
		C53.635,135.303,54.275,128.321,54.447,121.331z M52,111.351c-1.104,11.256-1.865,22.616-0.438,33.85
		c0.793,6.244-10.105,10.107-8.998,4.361c1.057-5.488,0.83-11.218,0.86-16.777c0.065-12.539-0.839-25.071-1.256-37.605
		c0.384,0.233,0.826,0.4,1.405,0.375c1.742-0.079,8.487,0.562,7.945-0.802C53.551,99.866,52.52,106.056,52,111.351z"/>
	<path d="M77.844,105.206c0.875-11.364-0.39-14.834-12.11-14.196c-1.392,0.076-2.149,0.937-2.361,1.925
		c-0.765-0.332-1.865-0.074-2.12,0.887c-1.883,7.139,0.201,16.495,0.159,23.908c-0.063,11.403-0.49,23.299,0.542,34.63
		c0.1,1.086,0.847,2.041,2.024,2.024c3.659-0.052,7.312-0.004,10.971-0.056c1.313-0.019,2.03-0.993,2.189-2.188
		C79.182,136.804,76.65,120.721,77.844,105.206z M73.167,148.865c-1.515,1.512-3.369,1.948-5.563,1.31
		c-2.398-1.22-2.995-3.179-1.789-5.879c0.335-5.99-0.102-11.851-0.479-17.83c-0.613-9.755-2.16-21.331-1.294-31.164
		c0.406,0.411,0.957,0.721,1.692,0.792c5.99,0.573,7.782,2.159,7.411,9.111c-0.235,4.413-0.359,8.77-0.342,13.198
		C72.844,128.552,73.284,138.735,73.167,148.865z"/>
	<path d="M86.799,90.893c-1.474,0.042-2.274,1.045-2.481,2.165c-0.523-0.775-1.774-0.562-1.833,0.495
		c-0.985,17.497-1.636,35.375-1.629,52.927c0.004,10.37,9.305,7.793,16.695,6.895c1.138-0.138,2.12-0.855,2.112-2.112
		c-0.094-16.902-0.492-33.937,1.244-50.771C101.982,90.085,95.542,90.646,86.799,90.893z M95.124,133.528
		c0.025,4.272,2.545,15.54-2.154,16.371c-6.947,1.229-7.312,0.646-7.326-5.879c-0.01-4.629,0.239-9.312,0.362-13.938
		c0.301-11.324,2.146-23.396-0.871-34.483c0.417,0.358,0.947,0.617,1.665,0.611c2.132-0.016,9.43-1.984,9.76,1.794
		c0.352,4.021-0.9,9.116-1.157,13.188C94.933,118.612,95.079,126.1,95.124,133.528z"/>
	<path d="M122.79,93.226c-0.16-0.882-1.128-1.513-1.979-1.506c-3.665,0.029-7.31-0.044-10.971-0.184
		c-0.542-0.021-0.956,0.145-1.313,0.374c-0.737-0.714-2.345-0.623-2.51,0.595c-2.076,15.302,0.817,31.224-1.3,46.612
		c-1.074,7.804-1.383,14.532,7.975,13.46c9.493-1.087,10.99-0.016,10.723-9.875C122.976,126.456,125.705,109.216,122.79,93.226z
		 M116.566,148.077c-5.692,1.02-8.816,1.534-8.168-5.538c0.49-5.354,0.844-10.448,0.887-15.854
		c0.08-10.021-1.126-20.532-0.61-30.564c0.326,0.187,0.701,0.318,1.166,0.323c7.315,0.081,9.621-0.032,9.808,8.535
		c0.136,6.271-0.651,12.598-1.014,18.853c-0.292,5.026,0.104,10.117,0.393,15.134C119.291,143.54,121.308,147.229,116.566,148.077z"
		/>
	<path d="M144.367,136.579c-0.43-9.514-0.725-19.654,0.347-29.121c1.305-11.53-1.664-17.504-13.85-15.783
		c-0.92,0.13-1.442,0.684-1.695,1.365c-0.769-0.014-1.513,0.543-1.259,1.513c1.703,6.51,1.001,14.374,1.034,21
		c0.049,9.964,1.166,20.566-0.288,30.442c-1.108,7.532,11.505,7.719,15.276,3.949C146.698,147.178,144.509,139.727,144.367,136.579z
		 M132.815,144.395c1.81-10.803,0.755-22.244,0.29-33.162c-0.164-3.854-0.021-9.918-1.361-14.382
		c5.866,0.04,7.032,2.381,6.377,8.057c-0.582,5.043-0.238,9.897,0.04,14.958c0.385,6.972,0.739,13.919,1.478,20.865
		C140.256,146.553,131.769,150.631,132.815,144.395z"/>
</g>
</svg>